<?xml version="1.0" standalone="no"?>
<!DOCTYPE svg PUBLIC "-//W3C//DTD SVG 1.1//EN" "http://www.w3.org/Graphics/SVG/1.1/DTD/svg11.dtd" >
<svg xmlns="http://www.w3.org/2000/svg" xmlns:xlink="http://www.w3.org/1999/xlink" version="1.1">
<metadata>
Created by FontForge 20170731 at Fri Dec 14 13:14:48 2018
 By Aleksey,,,
Copyright Darrell Flood 2014-2017
</metadata>
<defs>
<font id="Gameshow" horiz-adv-x="512" >
  <font-face 
    font-family="Gameshow"
    font-weight="400"
    font-stretch="normal"
    units-per-em="1024"
    panose-1="0 0 4 0 0 0 0 0 0 0"
    ascent="819"
    descent="-205"
    x-height="704"
    cap-height="576"
    bbox="0 0 448 704"
    underline-thickness="51"
    underline-position="26"
    unicode-range="U+0020-20AC"
  />
<missing-glyph horiz-adv-x="320" 
 />
    <glyph glyph-name=".notdef" horiz-adv-x="320" 
 />
    <glyph glyph-name=".null" horiz-adv-x="0" 
 />
    <glyph glyph-name="nonmarkingreturn" horiz-adv-x="341" 
 />
    <glyph glyph-name="space" unicode=" " 
 />
    <glyph glyph-name="exclam" unicode="!" 
d="M448 704v-704h-448v704h448zM192 576v-320h64v320h-64zM192 192v-64h64v64h-64z" />
    <glyph glyph-name="quotedbl" unicode="&#x22;" 
d="M448 704v-704h-448v704h448zM128 576v-128h64v128h-64zM256 576v-128h64v128h-64z" />
    <glyph glyph-name="numbersign" unicode="#" 
d="M448 704v-704h-448v704h448zM256 128h64v128h64v64h-64v64h64v64h-64v128h-64v-128h-64v128h-64v-128h-64v-64h64v-64h-64v-64h64v-128h64v128h64v-128zM192 384h64v-64h-64v64z" />
    <glyph glyph-name="dollar" unicode="$" 
d="M448 704v-704h-448v704h448zM128 576v-256h128v-128h-64v64h-64v-128h64v-64h64v64h64v256h-128v128h64v-64h64v128h-64v64h-64v-64h-64z" />
    <glyph glyph-name="percent" unicode="%" 
d="M448 704v-704h-448v704h448zM128 320v-64l192 128v64zM128 512v-64h64v64h-64zM256 256v-64h64v64h-64z" />
    <glyph glyph-name="ampersand" unicode="&#x26;" 
d="M448 704v-704h-448v704h448zM128 384v-64h64v-128h64v128h64v64h-64v128h-64v-128h-64z" />
    <glyph glyph-name="quotesingle" unicode="'" 
d="M448 704v-704h-448v704h448zM192 576v-128h64v128h-64z" />
    <glyph glyph-name="parenleft" unicode="(" 
d="M448 704v-704h-448v704h448zM128 576v-448h192v64h-128v320h128v64h-192z" />
    <glyph glyph-name="parenright" unicode=")" 
d="M448 704v-704h-448v704h448zM128 576v-64h128v-320h-128v-64h192v448h-192z" />
    <glyph glyph-name="asterisk" unicode="*" 
d="M448 704v-704h-448v704h448zM128 512v-64h64v-64h64v64h64v64h-64v64h-64v-64h-64z" />
    <glyph glyph-name="plus" unicode="+" 
d="M448 704v-704h-448v704h448zM128 384v-64h64v-64h64v64h64v64h-64v64h-64v-64h-64z" />
    <glyph glyph-name="comma" unicode="," 
d="M448 704v-704h-448v704h448zM192 256v-128h64v128h-64z" />
    <glyph glyph-name="hyphen" unicode="-" 
d="M448 704v-704h-448v704h448zM128 384v-64h192v64h-192z" />
    <glyph glyph-name="period" unicode="." 
d="M448 704v-704h-448v704h448zM192 192v-64h64v64h-64z" />
    <glyph glyph-name="slash" unicode="/" 
d="M448 704v-704h-448v704h448zM256 576l-128 -448h64l128 448h-64z" />
    <glyph glyph-name="zero" unicode="0" 
d="M448 704v-704h-448v704h448zM320 128v448h-192v-448h192zM256 512v-320h-64v320h64z" />
    <glyph glyph-name="one" unicode="1" 
d="M448 704v-704h-448v704h448zM192 576v-448h64v448h-64z" />
    <glyph glyph-name="two" unicode="2" 
d="M448 704v-704h-448v704h448zM128 448h64v64h64v-128h-128v-256h192v64h-128v128h128v256h-192v-128z" />
    <glyph glyph-name="three" unicode="3" 
d="M448 704v-704h-448v704h448zM320 128v448h-192v-64h128v-128h-128v-64h128v-128h-128v-64h192z" />
    <glyph glyph-name="four" unicode="4" 
d="M448 704v-704h-448v704h448zM192 384v192h-64v-256h128v-192h64v448h-64v-192h-64z" />
    <glyph glyph-name="five" unicode="5" 
d="M448 704v-704h-448v704h448zM128 128h192v256h-128v128h128v64h-192v-256h128v-128h-64v64h-64v-128z" />
    <glyph glyph-name="six" unicode="6" 
d="M448 704v-704h-448v704h448zM192 320h64v-128h-64v128zM128 128h192v256h-128v128h128v64h-192v-448z" />
    <glyph glyph-name="seven" unicode="7" 
d="M448 704v-704h-448v704h448zM256 128h64v448h-192v-64h128v-384z" />
    <glyph glyph-name="eight" unicode="8" 
d="M448 704v-704h-448v704h448zM192 384v128h64v-128h-64zM256 320v-128h-64v128h64zM320 128v448h-192v-448h192z" />
    <glyph glyph-name="nine" unicode="9" 
d="M448 704v-704h-448v704h448zM320 576h-192v-256h128v-128h-128v-64h192v448zM256 512v-128h-64v128h64z" />
    <glyph glyph-name="colon" unicode=":" 
d="M448 704v-704h-448v704h448zM192 320v-64h64v64h-64zM192 448v-64h64v64h-64z" />
    <glyph glyph-name="semicolon" unicode=";" 
d="M448 704v-704h-448v704h448zM192 320v-128h64v128h-64zM192 448v-64h64v64h-64z" />
    <glyph glyph-name="less" unicode="&#x3c;" 
d="M448 704v-704h-448v704h448zM224 256h96l-96 96l96 96h-96l-96 -96z" />
    <glyph glyph-name="equal" unicode="=" 
d="M448 704v-704h-448v704h448zM128 448v-64h192v64h-192zM128 320v-64h192v64h-192z" />
    <glyph glyph-name="greater" unicode="&#x3e;" 
d="M448 704v-704h-448v704h448zM320 352l-96 96h-96l96 -96l-96 -96h96z" />
    <glyph glyph-name="question" unicode="?" 
d="M448 704v-704h-448v704h448zM128 576v-128h64v64h64v-128h-64v-128h64v64h64v256h-192zM192 192v-64h64v64h-64z" />
    <glyph glyph-name="at" unicode="@" 
d="M279 391q1 2 1 4q0 3 -1 5q0 5 -4 10q-7 6 -17 6q-19 0 -40 -17q-21 -18 -33 -42q-10 -20 -10 -35q0 -12 6 -20q6 -7 17 -7t24 13q7 7 14 18q-2 -8 -2 -12q0 -9 7 -16q11 -12 27 -12q3 -1 6 -1q14 0 26 9q14 9 29.5 33.5t21.5 63.5q0 23 -10 43q-9 18 -26 28
q-20 15 -47 15q-48 0 -93 -29q-37 -24 -58 -60q-22 -37 -22 -76q0 -28 14 -52q11 -20 33 -31q21 -12 44 -12q16 0 36 6q32 9 61 27l-18 25q-22 -12 -32 -16q-27 -11 -43 -11q-2 0 -4 1q-16 1 -25 6t-15.5 13.5t-9 19t-3.5 20.5q-1 3 -1 6q0 8 3 17q2 13 7 28t15.5 32
t27 28.5t33.5 20t34 10.5h11q9 0 19 -1q13 -4 25 -20q10 -18 10 -32q0 -3 -1 -6q-1 -30 -13.5 -52.5t-20.5 -29.5t-13 -7t-9 4q-7 6 -7 16t7 25q4 13 11 28zM247 372q-14 -29 -30 -49q-9 -10 -17 -10q-2 0 -5 1q-2 4 -2 8q0 20 23 49q17 21 25 23h5q5 0 7 -2t2 -4v-1
q-3 -7 -8 -15zM448 704v-704h-448v704h448z" />
    <glyph glyph-name="A" unicode="A" 
d="M192 320v-192h-64v448h192v-448h-64v192h-64zM192 512v-128h64v128h-64z" />
    <glyph glyph-name="B" unicode="B" 
d="M320 576v-192l-60 -64h60v-192h-192v448h192zM256 384v128h-64v-128h64zM256 320h-64v-128h64v128z" />
    <glyph glyph-name="C" unicode="C" 
d="M320 448h-64v64h-64v-320h64v64h64v-128h-192v448h192v-128z" />
    <glyph glyph-name="D" unicode="D" 
d="M128 128v448h128l64 -64v-384h-192zM192 512v-320h64v320h-64z" />
    <glyph glyph-name="E" unicode="E" 
d="M320 576v-64h-128v-128h128v-64h-128v-128h128v-64h-192v448h192z" />
    <glyph glyph-name="F" unicode="F" 
d="M320 576v-64h-128v-128h128v-64h-128v-192h-64v448h192z" />
    <glyph glyph-name="G" unicode="G" 
d="M320 384v-256h-192v448h192v-128h-64v64h-64v-320h64v128h-30v64h94z" />
    <glyph glyph-name="H" unicode="H" 
d="M192 320v-192h-64v448h64v-192h64v192h64v-448h-64v192h-64z" />
    <glyph glyph-name="I" unicode="I" 
d="M256 576v-448h-64v448h64z" />
    <glyph glyph-name="J" unicode="J" 
d="M256 192v384h64v-448h-192v192h64v-128h64z" />
    <glyph glyph-name="K" unicode="K" 
d="M259 320h61v-192h-64v192h-64v-192h-64v448h64v-192h64v192h64v-192z" />
    <glyph glyph-name="L" unicode="L" 
d="M128 128v448h64v-384h128v-64h-192z" />
    <glyph glyph-name="M" unicode="M" 
d="M128 576l64 -64l32 -32l32 32l64 64v-448h-64v288l-32 -32l-32 32v-288h-64v448z" />
    <glyph glyph-name="N" unicode="N" 
d="M192 512v-384h-64v448h192v-448h-64v384h-64z" />
    <glyph glyph-name="O" unicode="O" 
d="M128 128v448h192v-448h-192zM192 512v-320h64v320h-64z" />
    <glyph glyph-name="P" unicode="P" 
d="M192 320v-192h-64v448h192v-256h-128zM192 512v-128h64v128h-64z" />
    <glyph glyph-name="Q" unicode="Q" 
d="M128 128v448h192v-448h-64v-64l-64 64h-64zM192 512v-320h64v320h-64z" />
    <glyph glyph-name="R" unicode="R" 
d="M320 576v-192l-61 -64h61v-192h-64v192h-64v-192h-64v448h192zM192 512v-128h64v128h-64z" />
    <glyph glyph-name="S" unicode="S" 
d="M320 448h-64v64h-64v-128h128v-256h-192v128h64v-64h64v128h-128v256h192v-128z" />
    <glyph glyph-name="T" unicode="T" 
d="M256 512v-384h-64v384h-64v64h192v-64h-64z" />
    <glyph glyph-name="U" unicode="U" 
d="M128 128v448h64v-384h64v384h64v-448h-192z" />
    <glyph glyph-name="V" unicode="V" 
d="M128 192v384h64v-352l32 -32l32 32v352h64v-384l-64 -64l-32 -32l-32 32z" />
    <glyph glyph-name="W" unicode="W" 
d="M128 576h64v-288l32 32l32 -32v288h64v-448l-64 64l-32 32l-32 -32l-64 -64v448z" />
    <glyph glyph-name="X" unicode="X" 
d="M192 416l32 -32l32 32v160h64v-192l-64 -64l64 -64v-128h-64v96l-32 32l-32 -32v-96h-64v128l64 64l-64 64v192h64v-160z" />
    <glyph glyph-name="Y" unicode="Y" 
d="M192 320l-64 64v192h64v-160l32 -32l32 32v160h64v-192l-64 -64v-192h-64v192z" />
    <glyph glyph-name="Z" unicode="Z" 
d="M256 512h-128v64h192v-64l-128 -320h128v-64h-192v64z" />
    <glyph glyph-name="bracketleft" unicode="[" 
d="M320 576v-64h-128v-320h128v-64h-192v448h192z" />
    <glyph glyph-name="backslash" unicode="\" 
d="M448 704v-704h-448v704h448zM128 576l128 -448h64l-128 448h-64z" />
    <glyph glyph-name="bracketright" unicode="]" 
d="M320 576v-448h-192v64h128v320h-128v64h192z" />
    <glyph glyph-name="asciicircum" unicode="^" 
d="M448 704v-704h-448v704h448zM192 480l32 32l32 -32h64l-96 96l-96 -96h64z" />
    <glyph glyph-name="underscore" unicode="_" 
d="M448 704v-704h-448v704h448zM128 192v-64h192v64h-192z" />
    <glyph glyph-name="grave" unicode="`" 
d="M448 704v-704h-448v704h448zM128 576l96 -128h96l-96 128h-96z" />
    <glyph glyph-name="a" unicode="a" 
d="M448 704v-704h-448v704h448zM256 320v-192h64v448h-192v-448h64v192h64zM256 512v-128h-64v128h64z" />
    <glyph glyph-name="b" unicode="b" 
d="M448 704v-704h-448v704h448zM128 576v-448h192v192h-60l60 64v192h-192zM192 384v128h64v-128h-64zM256 192h-64v128h64v-128z" />
    <glyph glyph-name="c" unicode="c" 
d="M448 704v-704h-448v704h448zM320 576h-192v-448h192v128h-64v-64h-64v320h64v-64h64v128z" />
    <glyph glyph-name="d" unicode="d" 
d="M448 704v-704h-448v704h448zM320 128v384l-64 64h-128v-448h192zM256 512v-320h-64v320h64z" />
    <glyph glyph-name="e" unicode="e" 
d="M448 704v-704h-448v704h448zM128 576v-448h192v64h-128v128h128v64h-128v128h128v64h-192z" />
    <glyph glyph-name="f" unicode="f" 
d="M448 704v-704h-448v704h448zM128 576v-448h64v192h128v64h-128v128h128v64h-192z" />
    <glyph glyph-name="g" unicode="g" 
d="M448 704v-704h-448v704h448zM226 384v-64h30v-128h-64v320h64v-64h64v128h-192v-448h192v256h-94z" />
    <glyph glyph-name="h" unicode="h" 
d="M448 704v-704h-448v704h448zM256 320v-192h64v448h-64v-192h-64v192h-64v-448h64v192h64z" />
    <glyph glyph-name="i" unicode="i" 
d="M448 704v-704h-448v704h448zM192 576v-448h64v448h-64z" />
    <glyph glyph-name="j" unicode="j" 
d="M448 704v-704h-448v704h448zM192 192v128h-64v-192h192v448h-64v-384h-64z" />
    <glyph glyph-name="k" unicode="k" 
d="M448 704v-704h-448v704h448zM320 384v192h-64v-192h-64v192h-64v-448h64v192h64v-192h64v192h-61z" />
    <glyph glyph-name="l" unicode="l" 
d="M448 704v-704h-448v704h448zM320 128v64h-128v384h-64v-448h192z" />
    <glyph glyph-name="m" unicode="m" 
d="M448 704v-704h-448v704h448zM128 128h64v288l32 -32l32 32v-288h64v448l-64 -64l-32 -32l-32 32l-64 64v-448z" />
    <glyph glyph-name="n" unicode="n" 
d="M448 704v-704h-448v704h448zM256 512v-384h64v448h-192v-448h64v384h64z" />
    <glyph glyph-name="o" unicode="o" 
d="M448 704v-704h-448v704h448zM320 128v448h-192v-448h192zM256 512v-320h-64v320h64z" />
    <glyph glyph-name="p" unicode="p" 
d="M448 704v-704h-448v704h448zM320 320v256h-192v-448h64v192h128zM256 512v-128h-64v128h64z" />
    <glyph glyph-name="q" unicode="q" 
d="M448 704v-704h-448v704h448zM192 128l64 -64v64h64v448h-192v-448h64zM256 512v-320h-64v320h64z" />
    <glyph glyph-name="r" unicode="r" 
d="M448 704v-704h-448v704h448zM128 576v-448h64v192h64v-192h64v192h-61l61 64v192h-192zM256 512v-128h-64v128h64z" />
    <glyph glyph-name="s" unicode="s" 
d="M448 704v-704h-448v704h448zM320 576h-192v-256h128v-128h-64v64h-64v-128h192v256h-128v128h64v-64h64v128z" />
    <glyph glyph-name="t" unicode="t" 
d="M448 704v-704h-448v704h448zM320 512v64h-192v-64h64v-384h64v384h64z" />
    <glyph glyph-name="u" unicode="u" 
d="M448 704v-704h-448v704h448zM320 128v448h-64v-384h-64v384h-64v-448h192z" />
    <glyph glyph-name="v" unicode="v" 
d="M448 704v-704h-448v704h448zM192 128l32 -32l32 32l64 64v384h-64v-352l-32 -32l-32 32v352h-64v-384z" />
    <glyph glyph-name="w" unicode="w" 
d="M448 704v-704h-448v704h448zM128 128l64 64l32 32l32 -32l64 -64v448h-64v-288l-32 32l-32 -32v288h-64v-448z" />
    <glyph glyph-name="x" unicode="x" 
d="M448 704v-704h-448v704h448zM192 576h-64v-192l64 -64l-64 -64v-128h64v96l32 32l32 -32v-96h64v128l-64 64l64 64v192h-64v-160l-32 -32l-32 32v160z" />
    <glyph glyph-name="y" unicode="y" 
d="M448 704v-704h-448v704h448zM192 128h64v192l64 64v192h-64v-160l-32 -32l-32 32v160h-64v-192l64 -64v-192z" />
    <glyph glyph-name="z" unicode="z" 
d="M448 704v-704h-448v704h448zM128 192v-64h192v64h-128l128 320v64h-192v-64h128z" />
    <glyph glyph-name="braceleft" unicode="{" 
d="M448 704v-704h-448v704h448z" />
    <glyph glyph-name="bar" unicode="|" 
d="M448 704v-704h-448v704h448zM192 576v-448h64v448h-64z" />
    <glyph glyph-name="braceright" unicode="}" 
d="M448 704v-704h-448v704h448z" />
    <glyph glyph-name="asciitilde" unicode="~" 
d="M448 704v-704h-448v704h448zM192 576v-448h64v448h-64z" />
    <glyph glyph-name="cent" unicode="&#xa2;" 
d="M448 704v-704h-448v704h448zM320 576h-192v-448h192v128h-64v-64h-64v320h64v-64h64v128z" />
    <glyph glyph-name="sterling" unicode="&#xa3;" 
d="M448 704v-704h-448v704h448zM256 320v64h-64v128h64v-64h64v128h-192v-448h192v64h-128v128h64z" />
    <glyph glyph-name="yen" unicode="&#xa5;" 
d="M448 704v-704h-448v704h448zM192 128h64v64h64v64h-64v64l64 64v192h-64v-160l-32 -32l-32 32v160h-64v-192l64 -64v-64h-64v-64h64v-64z" />
    <glyph glyph-name="multiply" unicode="&#xd7;" 
d="M448 704v-704h-448v704h448zM192 576h-64v-192l64 -64l-64 -64v-128h64v96l32 32l32 -32v-96h64v128l-64 64l64 64v192h-64v-160l-32 -32l-32 32v160z" />
    <glyph glyph-name="divide" unicode="&#xf7;" 
d="M448 704v-704h-448v704h448zM128 384v-64h192v64h-192zM192 512v-64h64v64h-64zM192 256v-64h64v64h-64z" />
    <glyph glyph-name="quoteleft" unicode="&#x2018;" 
d="M448 704v-704h-448v704h448zM192 576v-128h64v128h-64z" />
    <glyph glyph-name="quoteright" unicode="&#x2019;" 
d="M448 704v-704h-448v704h448zM192 576v-128h64v128h-64z" />
    <glyph glyph-name="quotedblleft" unicode="&#x201c;" 
d="M448 704v-704h-448v704h448zM128 576v-128h64v128h-64zM256 576v-128h64v128h-64z" />
    <glyph glyph-name="quotedblright" unicode="&#x201d;" 
d="M448 704v-704h-448v704h448zM128 576v-128h64v128h-64zM256 576v-128h64v128h-64z" />
    <glyph glyph-name="Euro" unicode="&#x20ac;" 
d="M448 704v-704h-448v704h448zM256 320v64h-64v128h64v-64h64v128h-192v-448h192v128h-64v-64h-64v128h64z" />
    <glyph glyph-name="_1" horiz-adv-x="320" 
 />
    <glyph glyph-name="_2" horiz-adv-x="64" 
 />
  </font>
</defs>
</svg>
